<?xml version="1.0" encoding="UTF-8"?>
<svg xmlns="http://www.w3.org/2000/svg" xmlns:xlink="http://www.w3.org/1999/xlink" viewBox="0 0 81.96 81.65">
  <defs>
    <style>
      .cls-1 {
        isolation: isolate;
      }

      .cls-2 {
        fill: url(#White_Black_2-3);
      }

      .cls-2, .cls-3, .cls-4 {
        mix-blend-mode: multiply;
        opacity: .5;
      }

      .cls-3 {
        fill: url(#White_Black_2-2);
      }

      .cls-4 {
        fill: url(#White_Black_2);
      }

      .cls-5 {
        fill: #e62d26;
      }
    </style>
    <linearGradient id="White_Black_2" data-name="White, Black 2" x1="79.29" y1="22.43" x2="40.98" y2="68.65" gradientUnits="userSpaceOnUse">
      <stop offset="0" stop-color="#fff"/>
      <stop offset="1" stop-color="#231f20"/>
    </linearGradient>
    <linearGradient id="White_Black_2-2" data-name="White, Black 2" x1="48.25" y1="12.67" x2="9.93" y2="58.89" xlink:href="#White_Black_2"/>
    <linearGradient id="White_Black_2-3" data-name="White, Black 2" x1="59.1" y1="-1.23" x2="21.91" y2="68.17" xlink:href="#White_Black_2"/>
  </defs>
  <g class="cls-1">
    <g id="Livello_1">
      <g>
        <path class="cls-5" d="M44.82,0v15.52c4.2.63,8.06,2.29,11.33,4.7l10.97-10.97C60.94,4.13,53.25.78,44.82,0Z"/>
        <path class="cls-5" d="M8.08,33.05C8.08,16.51,20.14,2.78,35.97.13,15.7,2.6,0,19.88,0,40.82s16.31,38.89,37.14,40.82v-15.5c-16.4-2.16-29.06-16.15-29.06-33.1Z"/>
        <path class="cls-5" d="M15.4,40.82c0-12.83,9.43-23.45,21.74-25.31V0c-.39.04-.78.08-1.17.13C20.14,2.78,8.08,16.51,8.08,33.05s12.66,30.94,29.06,33.1v-.02c-12.3-1.85-21.74-12.48-21.74-25.31Z"/>
        <path class="cls-5" d="M73.37,15.71c2.21,4.6,3.44,9.75,3.44,15.18,0,17.58-12.92,32.16-29.8,34.8-.72.17-1.45.32-2.19.43v15.52c20.83-1.94,37.14-19.47,37.14-40.82,0-9.46-3.21-18.17-8.59-25.11Z"/>
        <path class="cls-5" d="M76.81,30.9c0-5.44-1.24-10.59-3.44-15.18-.27-.35-.55-.7-.83-1.04l-10.97,10.97c3.13,4.25,4.98,9.49,4.98,15.17,0,12.06-8.33,22.16-19.55,24.88,16.89-2.64,29.8-17.22,29.8-34.8Z"/>
        <path class="cls-4" d="M76.81,30.9c0-5.44-1.24-10.59-3.44-15.18-.27-.35-.55-.7-.83-1.04l-10.97,10.97c3.13,4.25,4.98,9.49,4.98,15.17,0,12.06-8.33,22.16-19.55,24.88,16.89-2.64,29.8-17.22,29.8-34.8Z"/>
        <path class="cls-3" d="M15.4,40.82c0-12.83,9.43-23.45,21.74-25.31V0c-.39.04-.78.08-1.17.13C20.14,2.78,8.08,16.51,8.08,33.05s12.66,30.94,29.06,33.1v-.02c-12.3-1.85-21.74-12.48-21.74-25.31Z"/>
        <path class="cls-2" d="M44.82,0v15.52c4.2.63,8.06,2.29,11.33,4.7l10.97-10.97C60.94,4.13,53.25.78,44.82,0Z"/>
      </g>
    </g>
  </g>
</svg>